# xmcd CD database file
#
# Track frame offsets:
#	150
#	15392
#	32470
#	48775
#	65187
#	80848
#	97416
#	109019
#	123206
#	138865
#	151642
#	168778
#	187009
#
# Disc length: 2817 seconds
#
# Revision: 0
# Processed by: cddbd v1.5.2PL0 Copyright (c) Steve Scherf et al.
# Submitted via: CDex 1.51
#
DISCID=a00aff0d
DTITLE=Kip Moore - Slowheart
DYEAR=2017
DGENRE=Country
TTITLE0=Plead The Fifth
TTITLE1=Just Another Girl
TTITLE2=I've Been Around
TTITLE3=Fast Women
TTITLE4=Bittersweet Company
TTITLE5=Sunburn
TTITLE6=More Girls Like You
TTITLE7=The Bull
TTITLE8=Blonde
TTITLE9=Good Thing
TTITLE10=Last Shot
TTITLE11=Try Again
TTITLE12=Guitar Man
EXTD=YEAR: 2017
EXTT0=
EXTT1=
EXTT2=
EXTT3=
EXTT4=
EXTT5=
EXTT6=
EXTT7=
EXTT8=
EXTT9=
EXTT10=
EXTT11=
EXTT12=
PLAYORDER=
